HIERARCHY
ROOT Hips
{
	OFFSET 0.000000 0.000000 0.000000
	CHANNELS 6 Xposition Yposition Zposition Zrotation Yrotation Xrotation 
	JOINT LHipJoint
	{
		OFFSET 0.000000 0.000000 0.000000
		CHANNELS 3 Zrotation Yrotation Xrotation
		JOINT LeftUpLeg
		{
			OFFSET 1.363060 -1.794630 0.839290
			CHANNELS 3 Zrotation Yrotation Xrotation
			JOINT LeftLeg
			{
				OFFSET 2.448110 -6.726130 0.000000
				CHANNELS 3 Zrotation Yrotation Xrotation
				JOINT LeftFoot
				{
					OFFSET 2.562200 -7.039590 0.000000
					CHANNELS 3 Zrotation Yrotation Xrotation
					JOINT LeftToeBase
					{
						OFFSET 0.157640 -0.433110 2.322550
						CHANNELS 3 Zrotation Yrotation Xrotation
						End Site
						{
							OFFSET 0.000000 0.000000 0.000000
						}
					}
				}
			}
		}
	}
	JOINT RHipJoint
	{
		OFFSET 0.000000 0.000000 0.000000
		CHANNELS 3 Zrotation Yrotation Xrotation
		JOINT RightUpLeg
		{
			OFFSET -1.305520 -1.794630 0.839290
			CHANNELS 3 Zrotation Yrotation Xrotation
			JOINT RightLeg
			{
				OFFSET -2.542530 -6.985550 0.000000
				CHANNELS 3 Zrotation Yrotation Xrotation
				JOINT RightFoot
				{
					OFFSET -2.568260 -7.056230 0.000000
					CHANNELS 3 Zrotation Yrotation Xrotation
					JOINT RightToeBase
					{
						OFFSET -0.164730 -0.452590 2.363150
						CHANNELS 3 Zrotation Yrotation Xrotation
						End Site
						{
							OFFSET 0.000000 0.000000 0.000000
						}
					}
				}
			}
		}
	}
	JOINT LowerBack
	{
		OFFSET 0.000000 0.000000 0.000000
		CHANNELS 3 Zrotation Yrotation Xrotation
		JOINT Spine
		{
			OFFSET 0.028270 2.035590 -0.193380
			CHANNELS 3 Zrotation Yrotation Xrotation
			JOINT Spine1
			{
				OFFSET 0.056720 2.048850 -0.042750
				CHANNELS 3 Zrotation Yrotation Xrotation
				JOINT Neck
				{
					OFFSET 0.000000 0.000000 0.000000
					CHANNELS 3 Zrotation Yrotation Xrotation
					JOINT Neck1
					{
						OFFSET -0.054170 1.746240 0.172020
						CHANNELS 3 Zrotation Yrotation Xrotation
						JOINT Head
						{
							OFFSET 0.104070 1.761360 -0.123970
							CHANNELS 3 Zrotation Yrotation Xrotation
							End Site
							{
								OFFSET 0.000000 0.000000 0.000000
							}
						}
					}
				}
				JOINT LeftShoulder
				{
					OFFSET 0.000000 0.000000 0.000000
					CHANNELS 3 Zrotation Yrotation Xrotation
					JOINT LeftArm
					{
						OFFSET 3.362410 1.200890 -0.311210
						CHANNELS 3 Zrotation Yrotation Xrotation
						JOINT LeftForeArm
						{
							OFFSET 4.983000 -0.000000 -0.000000
							CHANNELS 3 Zrotation Yrotation Xrotation
							JOINT LeftHand
							{
								OFFSET 3.483560 -0.000000 -0.000000
								CHANNELS 3 Zrotation Yrotation Xrotation
								JOINT LeftFingerBase
								{
									OFFSET 0.000000 0.000000 0.000000
									CHANNELS 3 Zrotation Yrotation Xrotation
									JOINT LeftHandIndex1
									{
										OFFSET 0.715260 -0.000000 -0.000000
										CHANNELS 3 Zrotation Yrotation Xrotation
										End Site
										{
											OFFSET 0.000000 0.000000 0.000000
										}
									}
								}
								JOINT LThumb
								{
									OFFSET 0.000000 0.000000 0.000000
									CHANNELS 3 Zrotation Yrotation Xrotation
									End Site
									{
										OFFSET 0.000000 0.000000 0.000000
									}
								}
							}
						}
					}
				}
				JOINT RightShoulder
				{
					OFFSET 0.000000 0.000000 0.000000
					CHANNELS 3 Zrotation Yrotation Xrotation
					JOINT RightArm
					{
						OFFSET -3.136600 1.374050 -0.404650
						CHANNELS 3 Zrotation Yrotation Xrotation
						JOINT RightForeArm
						{
							OFFSET -5.241900 -0.000000 -0.000000
							CHANNELS 3 Zrotation Yrotation Xrotation
							JOINT RightHand
							{
								OFFSET -3.444170 -0.000000 -0.000000
								CHANNELS 3 Zrotation Yrotation Xrotation
								JOINT RightFingerBase
								{
									OFFSET 0.000000 0.000000 0.000000
									CHANNELS 3 Zrotation Yrotation Xrotation
									JOINT RightHandIndex1
									{
										OFFSET -0.622530 -0.000000 -0.000000
										CHANNELS 3 Zrotation Yrotation Xrotation
										End Site
										{
											OFFSET 0.000000 0.000000 0.000000
										}
									}
								}
								JOINT RThumb
								{
									OFFSET 0.000000 0.000000 0.000000
									CHANNELS 3 Zrotation Yrotation Xrotation
									End Site
									{
										OFFSET 0.000000 0.000000 0.000000
									}
								}
							}
						}
					}
				}
			}
		}
	}
}
MOTION
Frames: 7
Frame Time: 0.008333
-0.738489 18.458391 0.438135 -48.496889 88.033979 -25.533708 1.614203 -0.497447 -7.267844 -15.753294 -2.847127 -11.896471 -1.811337 1.980079 3.735325 -2.632034 13.551678 6.966595 0.886900 -6.003000 -16.793200 -1.086756 1.154982 -7.846148 16.760227 13.207089 -14.489263 0.974243 -6.005160 13.483853 4.974984 -19.704006 -1.318899 -0.710700 5.387800 -15.018000 -2.217261 -1.345755 14.278906 8.177770 4.300459 -61.198732 -1.153137 0.166249 0.441871 -6.082357 -0.794418 -17.797413 6.064128 -1.013594 33.009646 3.047800 0.262000 12.437900 0.368705 -1.743326 4.005170 -79.853865 -27.256036 88.541693 32.282536 -41.158425 -16.003970 1.655651 -1.208281 11.564318 3.667206 23.453727 0.750200 -7.125000 0.000000 0.000000 -27.921900 52.101300 -5.216600 -0.950754 3.623734 5.493821 73.173738 30.767869 92.691476 -39.229671 44.451334 -18.503585 -0.311736 0.659716 9.167854 2.744960 7.378495 0.373000 7.125000 0.000000 0.000000 21.605000 -23.214700 12.203600 
-0.739934 18.458701 0.442990 -50.744911 88.086131 -27.755840 1.597847 -0.507632 -7.267545 -15.693487 -2.959570 -11.970058 -1.811301 2.017287 3.809609 -2.644764 13.601945 6.988492 0.942000 -6.181600 -17.312400 -1.101592 1.154697 -7.852247 16.797829 13.282301 -14.468702 0.975497 -5.996281 13.469636 5.005170 -19.788912 -1.394693 -0.700700 5.350700 -14.911500 -2.081767 -1.348283 14.358921 7.898973 4.157182 -61.267374 -1.083205 0.150309 0.384018 -5.970429 -0.780878 -17.657851 6.016603 -1.026164 32.876134 3.012600 0.254100 12.367200 0.413567 -1.746437 4.023213 -79.499203 -27.181925 88.108797 32.903144 -41.631963 -16.504060 1.665659 -1.190476 11.101542 3.305742 23.481663 0.601400 -7.125000 0.000000 0.000000 -28.267000 52.056500 -5.257500 -0.922492 3.578845 5.487196 72.993549 30.712482 92.024794 -39.746147 44.785383 -18.906178 -0.294881 0.675723 8.840656 3.007335 8.073421 0.441700 7.125000 0.000000 0.000000 21.664300 -22.584700 12.584200 
-0.739005 18.458494 0.447741 -52.593910 88.072787 -29.592529 1.607382 -0.488273 -7.258044 -15.626637 -3.021872 -11.996624 -1.811825 2.034182 3.832363 -2.645762 13.616663 7.007062 0.948700 -6.203000 -17.374400 -1.093247 1.178418 -7.862424 16.860409 13.277651 -14.464747 0.974777 -5.991802 13.476608 5.012785 -19.799524 -1.471458 -0.688200 5.303700 -14.776800 -2.170225 -1.356651 14.345913 8.061128 4.232543 -61.228088 -1.090126 0.155208 0.414636 -6.017149 -0.767026 -17.603325 6.023070 -0.996176 32.790102 3.023400 0.262800 12.320200 0.400035 -1.718029 4.031433 -79.194739 -27.107735 87.506729 33.544860 -42.104456 -17.024116 1.676106 -1.175236 10.509386 2.981046 23.414533 0.466500 -7.125000 0.000000 0.000000 -28.521900 51.940600 -5.226500 -0.943305 3.573163 5.490315 72.735613 30.760894 91.389322 -40.329907 45.156697 -19.371195 -0.267819 0.687545 8.424124 3.619420 8.811547 0.567200 7.125000 0.000000 0.000000 21.946000 -21.909800 13.144900 
-0.735390 18.457875 0.451253 -53.905948 88.066778 -30.903577 1.625305 -0.454830 -7.246369 -15.592919 -3.069727 -11.952785 -1.814198 2.020268 3.783633 -2.645498 13.619262 6.991489 0.894900 -6.029300 -16.869500 -1.077247 1.206616 -7.876122 16.882955 13.337448 -14.422165 0.970738 -5.999264 13.513612 5.044340 -19.880517 -1.582775 -0.673300 5.247200 -14.614900 -2.335168 -1.364100 14.249387 8.344853 4.371283 -61.135178 -1.124890 0.166329 0.557334 -6.059781 -0.762816 -17.649329 5.962622 -0.954186 32.746751 3.013500 0.269900 12.295100 0.364867 -1.690653 4.042815 -78.907296 -27.096970 86.901333 34.277539 -42.617708 -17.611629 1.690732 -1.154197 9.867693 2.615657 23.552801 0.317000 -7.125000 0.000000 0.000000 -28.940700 51.993500 -5.354200 -0.975826 3.584259 5.500581 72.380471 30.876941 90.883537 -40.973648 45.546203 -19.877549 -0.260156 0.697673 8.089901 3.668047 9.095520 0.591500 7.125000 0.000000 0.000000 21.929800 -21.657900 13.271200 
-0.733118 18.456945 0.454971 -54.724416 88.170361 -31.739839 1.615479 -0.439428 -7.241028 -15.603239 -3.150274 -11.847876 -1.818837 1.970014 3.652137 -2.639921 13.615809 7.029550 0.887900 -6.006300 -16.802800 -1.087566 1.209683 -7.885917 16.834408 13.462850 -14.342057 0.964997 -6.020348 13.573670 5.109997 -20.064774 -1.743300 -0.656700 5.183400 -14.432400 -2.368243 -1.375046 14.255401 8.195747 4.280660 -61.136341 -1.041302 0.141978 0.638092 -6.035773 -0.758219 -17.662293 5.943476 -0.951987 32.715663 3.005300 0.268200 12.271700 0.380279 -1.699082 4.068295 -78.600461 -27.079253 86.198081 34.994230 -43.121859 -18.215144 1.697379 -1.122631 8.956821 1.821147 23.516216 -0.007100 -7.125000 0.000000 0.000000 -29.626700 51.817500 -5.365700 -0.956133 3.550810 5.502656 72.036614 30.882609 90.322382 -41.662056 45.951113 -20.415868 -0.263469 0.708192 7.971187 3.375541 9.172987 0.553300 7.125000 0.000000 0.000000 21.724700 -21.598100 13.159200 
-0.731775 18.456119 0.456933 -54.230417 88.314928 -31.261005 1.595843 -0.426800 -7.239160 -15.660882 -3.205211 -11.687494 -1.825061 1.875784 3.414045 -2.638997 13.653340 7.157173 0.931200 -6.147100 -17.211800 -1.108720 1.208119 -7.892663 16.725193 13.487669 -14.330489 0.958352 -6.052965 13.655590 5.133601 -20.121649 -1.857769 -0.638500 5.112300 -14.229100 -2.409846 -1.380634 14.268087 7.969807 4.156228 -61.148455 -0.932576 0.116798 0.729747 -6.022843 -0.763686 -17.658780 5.937569 -0.966114 32.675693 3.000100 0.259300 12.241600 0.402577 -1.714392 4.095724 -78.333760 -27.022837 85.370888 35.637348 -43.576815 -18.787219 1.695174 -1.106260 7.965808 1.253316 22.943523 -0.228800 -7.125000 0.000000 0.000000 -29.775600 51.235400 -4.946200 -0.927162 3.508773 5.504118 71.683182 30.942085 89.701859 -42.240306 46.291551 -20.871011 -0.253639 0.725350 7.757561 3.307312 9.735991 0.576000 7.125000 0.000000 0.000000 21.590000 -21.092700 13.334700 
-0.730019 18.455293 0.459619 -55.011596 88.373135 -32.033506 1.595344 -0.396252 -7.229304 -15.639729 -3.248190 -11.564679 -1.830892 1.786742 3.175036 -2.643200 13.702389 7.251084 0.915000 -6.095000 -17.060500 -1.109887 1.227494 -7.908135 16.694905 13.491495 -14.355120 0.949315 -6.078874 13.724230 5.167139 -20.229134 -1.853458 -0.677000 5.261000 -14.654400 -2.519525 -1.372047 14.179762 8.003670 4.183675 -61.098596 -0.916234 0.124515 0.894318 -6.093300 -0.807128 -17.686622 5.928249 -1.005358 32.675594 3.000100 0.233200 12.232000 0.392476 -1.703553 4.113145 -78.154336 -26.906969 84.470034 36.300221 -44.029950 -19.381481 1.690723 -1.090129 7.169598 0.544749 22.336000 -0.495700 -7.125000 0.000000 0.000000 -30.030700 50.597000 -4.494200 -0.921757 3.495087 5.512559 71.282199 31.015528 88.942462 -42.902280 46.673865 -21.400336 -0.233215 0.743697 7.417596 3.491473 10.497332 0.650300 7.125000 0.000000 0.000000 21.590100 -20.404100 13.701200 
